<?xml version="1.0" standalone="no"?>
<!DOCTYPE svg PUBLIC "-//W3C//DTD SVG 20010904//EN"
 "http://www.w3.org/TR/2001/REC-SVG-20010904/DTD/svg10.dtd">
<svg version="1.0" xmlns="http://www.w3.org/2000/svg"
 width="487.000000pt" height="219.000000pt" viewBox="0 0 487.000000 219.000000"
 preserveAspectRatio="xMidYMid meet">

<g transform="translate(0.000000,219.000000) scale(0.100000,-0.100000)"
fill="#000000" stroke="none">
<path d="M55 2123 l-50 -18 -3 -684 -2 -683 69 -68 c189 -184 380 -279 711
-356 41 -9 81 -22 89 -28 9 -7 126 -12 350 -14 302 -3 351 -1 486 19 164 23
174 24 383 19 78 -1 145 0 149 4 3 3 -23 6 -58 6 -35 0 -122 3 -194 6 -71 3
-143 5 -158 5 -34 -2 -318 58 -332 70 -6 4 -33 13 -60 19 -70 14 -125 40 -125
58 0 12 -3 12 -16 1 -14 -11 -18 -10 -30 6 -8 10 -26 19 -41 20 -14 0 -28 6
-30 12 -3 7 -20 17 -39 23 -33 11 -46 34 -22 42 7 3 6 7 -5 11 -11 4 -17 1
-17 -8 0 -8 -4 -15 -8 -15 -12 0 -68 43 -102 79 -17 17 -35 31 -40 31 -6 0
-10 7 -10 15 0 8 -4 15 -10 15 -15 0 -50 33 -44 42 3 5 10 5 16 2 7 -4 8 -2 4
4 -4 7 -25 15 -47 18 -21 4 -39 10 -39 13 0 4 -20 22 -45 39 -25 18 -50 42
-55 55 -5 12 -9 16 -9 10 -1 -13 -60 15 -92 43 -8 8 -21 14 -27 14 -7 0 -12 5
-12 10 0 6 5 10 10 10 6 0 10 5 10 11 0 6 -9 9 -20 6 -11 -3 -20 -1 -20 5 0 6
-9 8 -21 5 -11 -3 -39 3 -62 14 l-42 20 40 -5 c22 -3 63 -8 91 -11 28 -3 64
-10 80 -15 l29 -8 -27 -1 c-16 -1 -28 -5 -28 -10 0 -16 38 -56 46 -49 4 4 1
14 -6 23 -10 12 -10 15 4 15 9 0 16 5 16 10 0 6 5 10 10 10 6 0 5 -8 -2 -20
-9 -14 -9 -23 -2 -30 8 -8 13 -4 18 15 5 18 12 25 24 21 9 -2 43 -12 75 -20
35 -10 57 -22 57 -31 0 -7 5 -17 12 -21 8 -5 9 -2 5 9 -5 14 -2 16 21 11 15
-4 38 -12 52 -19 52 -26 116 -54 153 -66 20 -7 37 -17 37 -21 0 -4 7 -8 15 -8
32 0 65 -23 59 -42 -3 -10 -1 -18 5 -18 6 0 11 5 11 10 0 6 7 10 15 10 8 0 15
-5 15 -11 0 -5 4 -7 10 -4 5 3 7 0 4 -8 -8 -23 25 -49 54 -42 19 5 23 3 19 -9
-4 -9 -2 -18 3 -21 6 -4 10 -1 10 4 0 6 7 11 15 11 8 0 15 -5 15 -11 0 -5 4
-8 8 -5 5 3 44 -12 88 -34 43 -22 85 -40 92 -40 7 0 15 -7 18 -15 4 -9 19 -15
40 -15 22 0 34 -5 34 -14 0 -17 27 -29 35 -16 6 10 36 -4 68 -31 10 -10 27
-14 39 -11 11 2 15 8 9 11 -12 8 -44 81 -38 87 2 2 33 -9 68 -25 65 -29 290
-100 384 -120 109 -23 272 -31 565 -27 168 2 337 9 375 15 109 17 237 41 265
50 14 5 50 14 80 20 54 12 94 24 135 41 11 5 76 27 145 49 177 58 199 75 58
46 -167 -36 -360 -49 -603 -41 -233 7 -289 12 -535 56 -139 24 -422 105 -525
150 -110 48 -195 82 -235 94 -55 16 -61 31 -17 45 30 10 46 7 163 -40 71 -28
143 -57 159 -64 65 -28 282 -93 368 -110 10 -2 27 -7 36 -10 35 -11 188 -35
321 -51 171 -20 594 -24 735 -6 171 22 322 51 448 87 187 53 331 102 320 108
-6 4 -25 2 -44 -3 -56 -15 -286 -39 -445 -46 -341 -15 -808 53 -1099 159 -109
40 -231 90 -239 98 -21 20 86 8 151 -17 212 -79 422 -132 676 -170 146 -22
210 -26 423 -28 l250 -1 45 30 c62 42 202 178 263 255 48 60 116 163 116 176
0 7 -42 -16 -65 -36 -34 -30 -195 -118 -264 -144 -122 -47 -227 -66 -386 -73
-161 -6 -270 7 -410 49 -38 11 -71 20 -72 20 -2 -1 -22 6 -45 14 -155 54 -695
137 -1038 159 -118 7 -665 8 -736 0 -33 -3 -133 -10 -224 -15 -201 -12 -357
-26 -425 -39 -27 -6 -93 -18 -145 -27 -52 -9 -119 -25 -148 -35 -28 -10 -52
-16 -52 -14 0 3 -18 -2 -41 -11 -105 -43 -259 40 -309 166 -23 58 -26 147 -7
200 36 106 128 177 260 201 64 12 86 10 195 -18 21 -5 22 -3 16 23 -12 54 -63
130 -108 162 -24 18 -49 32 -54 32 -6 0 -29 24 -52 53 -46 58 -131 120 -188
138 -67 20 -192 21 -247 2z m1275 -1403 c0 -5 -2 -10 -4 -10 -3 0 -8 5 -11 10
-3 6 -1 10 4 10 6 0 11 -4 11 -10z"/>
<path d="M843 1703 c-29 -2 -53 -9 -53 -15 0 -5 6 -8 13 -5 23 9 35 -7 42 -53
19 -139 24 -190 25 -233 0 -41 -3 -50 -20 -54 -11 -3 -20 -8 -20 -12 0 -4 32
-2 70 3 39 5 70 13 70 18 0 4 -9 8 -20 8 -23 0 -32 26 -34 102 l-1 52 80 12
c44 6 82 10 84 8 2 -2 6 -37 9 -79 4 -63 2 -76 -12 -81 -29 -11 -6 -23 27 -13
17 5 48 9 67 9 l35 1 -32 14 c-24 10 -33 21 -33 37 0 13 -7 83 -17 156 l-17
132 -27 0 c-27 0 -27 -1 -18 -35 6 -20 9 -54 7 -77 -3 -45 1 -43 -104 -54
l-61 -6 -6 47 c-10 72 -9 92 9 109 11 12 12 15 2 14 -7 -1 -37 -3 -65 -5z"/>
<path d="M1536 1652 c-28 -3 -36 -6 -25 -12 18 -12 27 -229 9 -240 -9 -5 34
-6 70 0 3 0 0 4 -7 8 -18 11 -29 207 -13 227 16 20 14 21 -34 17z"/>
<path d="M1640 1650 c20 -13 28 -213 9 -236 -11 -14 5 -15 154 -12 158 3 166
4 161 22 -4 10 -7 68 -8 127 l-1 109 -30 0 c-22 0 -26 -3 -17 -12 8 -8 12 -49
12 -120 l0 -108 -45 0 c-25 0 -45 3 -45 8 0 4 -2 49 -5 100 -3 55 -1 101 5
113 10 17 7 19 -32 19 -34 -1 -39 -3 -25 -11 14 -9 17 -26 17 -119 l0 -110
-51 0 -51 0 4 120 3 120 -35 0 c-26 0 -31 -3 -20 -10z"/>
<path d="M2038 1653 c15 -6 18 -233 2 -233 -5 0 -10 -4 -10 -10 0 -5 16 -10
36 -10 31 0 35 2 24 15 -17 20 -10 206 9 229 12 14 9 16 -30 15 -24 0 -38 -3
-31 -6z"/>
<path d="M1396 1643 c-18 -3 -25 -8 -18 -12 7 -4 13 -29 15 -57 l2 -49 -56 -3
-56 -3 -7 41 c-4 24 -2 49 5 62 10 18 9 20 -6 15 -9 -4 -26 -7 -37 -7 -15 0
-18 -3 -10 -12 17 -21 26 -201 12 -228 -11 -21 -11 -22 11 -17 13 4 32 7 42 7
17 0 17 2 3 22 -9 12 -16 39 -16 59 l0 36 57 6 c32 3 59 5 60 3 2 -1 4 -28 6
-59 l2 -57 34 0 c30 0 32 2 19 13 -21 16 -35 211 -17 233 12 15 12 15 -45 7z"/>
<path d="M2191 1622 c-30 -25 -35 -35 -39 -85 -4 -50 -1 -63 22 -97 14 -22 30
-40 35 -40 4 0 21 -12 37 -26 37 -32 80 -55 88 -47 3 3 -3 12 -14 20 -26 19
-25 39 2 54 68 37 91 136 46 195 -35 45 -50 53 -98 54 -36 0 -53 -6 -79 -28z
m130 -11 c24 -25 29 -37 29 -81 0 -28 -7 -64 -15 -80 -29 -56 -90 -67 -124
-24 -40 51 -21 195 26 207 39 10 56 6 84 -22z"/>
<path d="M2437 1633 c7 -2 32 -63 55 -135 48 -150 39 -150 119 4 27 54 54 98
59 98 6 0 10 5 10 11 0 6 -9 9 -21 7 -14 -2 -25 -15 -33 -38 -18 -52 -60 -133
-71 -137 -15 -5 -65 159 -54 173 6 8 4 14 -7 18 -19 7 -75 7 -57 -1z"/>
<path d="M2743 1588 c2 -7 -2 -58 -9 -113 -9 -73 -17 -103 -30 -112 -16 -11
-13 -13 20 -13 20 0 35 3 33 8 -5 7 19 193 29 224 4 14 0 18 -21 18 -18 0 -25
-4 -22 -12z"/>
<path d="M2866 1563 c7 -24 -24 -204 -37 -219 -7 -8 0 -13 25 -16 24 -3 32 -1
26 7 -10 12 -6 47 16 154 l16 73 30 -6 c17 -3 42 -6 56 -6 24 0 25 -2 19 -47
-14 -123 -29 -183 -45 -183 -25 0 -9 -8 37 -19 39 -8 41 -8 28 7 -13 15 -14
28 -1 107 7 50 19 98 25 108 6 11 9 20 7 21 -7 5 -120 28 -162 32 -40 5 -44 3
-40 -13z"/>
<path d="M3200 1450 c-25 -35 -64 -87 -88 -116 -43 -53 -43 -54 -18 -54 19 0
26 5 26 19 0 10 14 36 31 57 17 22 38 52 46 68 19 36 29 25 42 -48 15 -79 14
-126 -1 -127 -7 -1 3 -5 22 -9 19 -5 36 -8 37 -6 1 1 -10 64 -25 140 l-28 138
-44 -62z"/>
<path d="M750 950 c0 -5 5 -10 10 -10 6 0 10 5 10 10 0 6 -4 10 -10 10 -5 0
-10 -4 -10 -10z"/>
<path d="M795 930 c-3 -5 -1 -10 4 -10 6 0 11 5 11 10 0 6 -2 10 -4 10 -3 0
-8 -4 -11 -10z"/>
<path d="M960 870 c0 -5 7 -7 15 -4 8 4 15 8 15 10 0 2 -7 4 -15 4 -8 0 -15
-4 -15 -10z"/>
<path d="M785 850 c-3 -5 -1 -10 4 -10 6 0 11 5 11 10 0 6 -2 10 -4 10 -3 0
-8 -4 -11 -10z"/>
<path d="M858 813 c7 -3 16 -2 19 1 4 3 -2 6 -13 5 -11 0 -14 -3 -6 -6z"/>
<path d="M1120 799 c0 -5 5 -7 10 -4 6 3 10 8 10 11 0 2 -4 4 -10 4 -5 0 -10
-5 -10 -11z"/>
<path d="M1010 706 c0 -2 7 -7 16 -10 8 -3 12 -2 9 4 -6 10 -25 14 -25 6z"/>
<path d="M1945 450 c27 -12 43 -12 25 0 -8 5 -22 9 -30 9 -10 0 -8 -3 5 -9z"/>
<path d="M2068 423 c7 -3 16 -2 19 1 4 3 -2 6 -13 5 -11 0 -14 -3 -6 -6z"/>
<path d="M2235 390 c3 -5 13 -10 21 -10 8 0 12 5 9 10 -3 6 -13 10 -21 10 -8
0 -12 -4 -9 -10z"/>
<path d="M2635 383 c-16 -3 -34 -9 -40 -15 -12 -12 81 -3 118 12 19 8 17 9
-13 8 -19 -1 -48 -3 -65 -5z"/>
<path d="M2543 360 c-30 -12 -29 -18 2 -12 14 2 25 8 25 13 0 5 -1 9 -2 8 -2
0 -13 -4 -25 -9z"/>
<path d="M2416 341 c-8 -12 24 -19 54 -11 l25 6 -25 7 c-34 9 -48 9 -54 -2z"/>
<path d="M2314 323 c10 -11 36 -12 36 -2 0 5 -10 9 -22 9 -12 0 -18 -3 -14 -7z"/>
</g>
</svg>
